<svg xmlns="http://www.w3.org/2000/svg" viewBox="0 0 100 100" fill="none">
  <defs>
    <linearGradient id="magmaGrad" x1="0%" y1="100%" x2="100%" y2="0%">
      <stop offset="0%" stop-color="#ff4500" />
      <stop offset="40%" stop-color="#ff8c00" />
      <stop offset="100%" stop-color="#ffb732" />
    </linearGradient>
    <filter id="glow" x="-20%" y="-20%" width="140%" height="140%">
      <feGaussianBlur stdDeviation="8" result="blur" />
      <feMerge>
        <feMergeNode in="blur" />
        <feMergeNode in="SourceGraphic" />
      </feMerge>
    </filter>
  </defs>
  <path d="M50 10 C65 30 85 45 85 65 C85 85 70 95 50 95 C30 95 15 85 15 65 C15 45 35 30 50 10 Z" fill="url(#magmaGrad)" filter="url(#glow)" opacity="0.8"/>
  <path d="M50 30 C58 45 70 55 70 70 C70 85 60 90 50 90 C40 90 30 85 30 70 C30 55 42 45 50 30 Z" fill="#ffffff" opacity="0.9"/>
  <circle cx="50" cy="72" r="6" fill="#050505"/>
</svg>
